<svg width="19" height="19" fill="none" xmlns="http://www.w3.org/2000/svg">
    <mask id="a" maskUnits="userSpaceOnUse" x="0" y="0" width="15" height="20" style="mask-type: alpha;"><path fill-rule="evenodd" clip-rule="evenodd" d="M0 0h14.142v19.692H0V0Z" fill="#fff"></path></mask>
    
    <g mask="url(#a)"><path fill-rule="evenodd" clip-rule="evenodd" d="M7.04 15.869a3.279 3.279 0 0 1-3.246-3.335c.012-1.822 1.489-3.298 3.31-3.272a3.279 3.279 0 0 1 3.245 3.336 3.286 3.286 0 0 1-3.31 3.271Zm7.103-3.31c.089-1.757-.51-4.631-1.973-6.979-.039-.064-.102-.038-.09.026.102.36.115 1-.445.962-1.006-.064.038-2.22-2.164-3.72-.038-.026-.102.012-.076.064.152.295.241 1.193-.102 1.5-.28.245-.79.18-1.286-.628C7.18 2.437 7.498.987 8.058.09 8.096.025 8.045 0 7.994.012 4.964 1.013 4.367 4.605 3.73 5.914c-.102.218-.204.333-.382.32-.547-.038-.153-1.218.038-1.629.026-.064-.038-.09-.076-.051C1.744 6.184.331 8.98.064 11.57c.013-.064-.025.218-.038.41 0 .078-.013.155-.013.245-.013.09-.013.192-.013.282-.038 3.938 3.106 7.146 7.014 7.184 3.908.038 7.09-3.13 7.129-7.069v-.064Z" fill="#F04E23"></path></g>
</svg>