<svg width="132" height="24" fill="none" xmlns="http://www.w3.org/2000/svg"><path fill-rule="evenodd" clip-rule="evenodd" d="M17.617 16.344V7.479c0-.038.038-.077.077-.077h1.693c.05 0 .076.039.076.077v3.195h.025c.446-.565 1.12-.821 1.872-.821 1.336 0 1.756.872 1.756 2.04v4.464c0 .038-.025.077-.076.077h-1.693c-.051 0-.077-.039-.077-.077v-4.31c0-.501-.521-.655-.852-.655-.331 0-.942.218-.942.847v4.105c0 .038-.026.077-.077.077h-1.705c-.039 0-.077-.026-.077-.077ZM31.11 14.6v-3.067h-.776c-.05 0-.076-.038-.076-.077v-1.103c0-.039.025-.064.05-.077.026-.013 1.032-.308 1.032-.308s.547-1.732.56-1.758c.013-.025.038-.05.076-.05h.917c.038 0 .076.025.076.076v1.732h1.362c.038 0 .077.026.077.077v1.398c0 .052-.039.077-.077.077H32.97v2.861c0 .295.166.475.573.475h.79c.05 0 .076.051.076.077v1.231c0 .039-.039.064-.051.077-.484.18-.751.295-1.299.295-1.387.026-1.947-.795-1.947-1.937ZM57.587 14.6v-3.067h-.776c-.051 0-.077-.038-.077-.077v-1.103c0-.039.026-.064.051-.077.026-.013 1.031-.308 1.031-.308s.548-1.732.56-1.758c.013-.025.039-.05.077-.05h.916c.038 0 .077.025.077.076v1.732h1.362c.038 0 .076.026.076.077v1.398c0 .052-.038.077-.076.077h-1.362v2.861c0 .295.165.475.573.475h.789c.05 0 .076.051.076.077v1.231c0 .039-.038.064-.05.077-.485.18-.752.295-1.3.295-1.387.026-1.947-.795-1.947-1.937ZM35.527 16.344v-6.286c0-.051.038-.077.077-.077h1.527c.038 0 .064.026.077.051.012.026.178.642.178.642h.025c.446-.565 1.12-.821 1.859-.821.904 0 1.35.41 1.591 1.039h.05c.46-.77 1.261-1.04 2.012-1.04 1.337 0 1.757.873 1.757 2.04v4.465c0 .051-.038.077-.077.077h-1.705c-.051 0-.077-.039-.077-.077v-4.272c0-.5-.47-.693-.802-.693-.382 0-.954.244-.98.808v4.157c0 .038-.025.077-.076.077h-1.706c-.038 0-.076-.039-.076-.077v-4.272c0-.5-.497-.693-.866-.693-.33 0-.93.257-.93.898v4.08c0 .038-.025.077-.075.077h-1.694a.106.106 0 0 1-.089-.103ZM49.084 13.637h-1.018c-.535 0-.891.205-.891.783 0 .628.445.77.878.77.395 0 1.031-.244 1.031-1.04v-.513ZM45.8 11.392v-1.167c0-.039.038-.077.064-.077.878-.18 1.693-.295 2.47-.295 1.641 0 2.596.397 2.596 2.18v4.324c0 .051-.038.077-.077.077h-1.616c-.038 0-.064-.026-.077-.064-.012-.039-.178-.642-.178-.642h.077c-.459.642-1.07.821-1.82.821-1.21 0-1.846-.936-1.846-2.052 0-1.681 1.222-2.014 2.125-2.014h1.553v-.424c0-.539-.394-.641-1.87-.641-.625 0-1.3.051-1.337.051-.026 0-.064-.026-.064-.077ZM52.012 16.344v-6.286c0-.039.038-.077.076-.077h1.515c.038 0 .076.026.076.064.013.039.178.975.178.975h.026c.407-.847 1.247-1.155 1.973-1.167.038 0 .076.025.076.077v1.757c0 .051-.038.077-.076.077h-.433c-1.17 0-1.566.475-1.566 1.052v3.528c0 .051-.038.077-.076.077h-1.693c-.038.013-.076-.026-.076-.077ZM25.905 13.2c0 1.104.165 1.797 1.044 1.797.89 0 1.056-.68 1.056-1.796 0-1.103-.165-1.783-1.056-1.783-.879 0-1.044.68-1.044 1.783Zm-1.999 0c0-2.052.79-3.36 3.043-3.36 2.265 0 3.067 1.308 3.067 3.36 0 2.066-.789 3.362-3.067 3.362-2.254 0-3.043-1.296-3.043-3.361Z" fill="#053D4E"></path><mask id="a" maskUnits="userSpaceOnUse" x="0" y="0" width="15" height="20" style="mask-type: alpha;"><path fill-rule="evenodd" clip-rule="evenodd" d="M0 0h14.142v19.692H0V0Z" fill="#fff"></path></mask><g mask="url(#a)"><path fill-rule="evenodd" clip-rule="evenodd" d="M7.04 15.869a3.279 3.279 0 0 1-3.246-3.335c.012-1.822 1.489-3.298 3.31-3.272a3.279 3.279 0 0 1 3.245 3.336 3.286 3.286 0 0 1-3.31 3.271Zm7.103-3.31c.089-1.757-.51-4.631-1.973-6.979-.039-.064-.102-.038-.09.026.102.36.115 1-.445.962-1.006-.064.038-2.22-2.164-3.72-.038-.026-.102.012-.076.064.152.295.241 1.193-.102 1.5-.28.245-.79.18-1.286-.628C7.18 2.437 7.498.987 8.058.09 8.096.025 8.045 0 7.994.012 4.964 1.013 4.367 4.605 3.73 5.914c-.102.218-.204.333-.382.32-.547-.038-.153-1.218.038-1.629.026-.064-.038-.09-.076-.051C1.744 6.184.331 8.98.064 11.57c.013-.064-.025.218-.038.41 0 .078-.013.155-.013.245-.013.09-.013.192-.013.282-.038 3.938 3.106 7.146 7.014 7.184 3.908.038 7.09-3.13 7.129-7.069v-.064Z" fill="#F04E23"></path></g><path d="M73.295 7.21v9.352h-.993l.013-7.235-3.017 5.76h-.764l-3.03-5.71.013 7.185h-1.005V7.21h.89l3.514 6.773 3.475-6.773h.904ZM79.597 10.571c.394.423.598 1.065.598 1.912v4.066H79.15v-1.103c-.166.385-.42.68-.764.885a2.265 2.265 0 0 1-1.184.308c-.407 0-.789-.09-1.133-.256a2.026 2.026 0 0 1-.827-.706 1.72 1.72 0 0 1-.305-1c0-.488.127-.86.369-1.13.242-.27.649-.462 1.209-.577.56-.116 1.337-.18 2.342-.18h.293v-.436c0-.539-.115-.936-.331-1.167-.216-.244-.573-.36-1.07-.36-.738 0-1.463.232-2.201.693l-.357-.782a3.933 3.933 0 0 1 1.21-.577c.47-.142.929-.219 1.361-.219.828 0 1.439.219 1.834.629Zm-.942 4.695c.343-.359.509-.82.509-1.385v-.385h-.242c-.777 0-1.362.038-1.77.103-.407.064-.687.18-.865.333-.166.154-.255.385-.255.68 0 .347.127.629.37.86.254.23.56.333.941.333.535 0 .968-.18 1.311-.539ZM85.516 10.879l-.7.064c-.662.064-1.133.27-1.426.629-.293.359-.446.795-.446 1.308v3.682h-1.069V10.11h1.044v1.13c.356-.758 1.07-1.168 2.113-1.258l.382-.026.102.924ZM90.594 16.562l-3.26-3.092v3.092h-1.068V7.21h1.069v5.824l2.991-2.912h1.35l-3.183 3.092 3.488 3.36h-1.387v-.012ZM97.838 13.496h-4.685c.038.757.242 1.321.611 1.706.37.385.891.578 1.566.578.751 0 1.426-.257 2.05-.77l.356.782c-.28.27-.637.475-1.082.629-.433.154-.891.23-1.337.23-1.005 0-1.782-.294-2.367-.884-.573-.59-.866-1.412-.866-2.45 0-.668.127-1.245.382-1.758a2.935 2.935 0 0 1 1.07-1.193c.457-.282.98-.424 1.578-.424.852 0 1.514.283 1.998.847.484.565.726 1.334.726 2.31v.397Zm-4.061-2.18c-.344.358-.535.859-.598 1.5h3.73c-.013-.654-.179-1.155-.484-1.5-.306-.347-.739-.527-1.286-.527-.573-.013-1.031.167-1.362.526ZM102.497 15.754l-.051.847c-.204.038-.42.05-.662.05-.777 0-1.349-.204-1.744-.615-.395-.41-.586-.975-.586-1.693v-3.387h-1.247v-.847h1.248V8.146h1.069v1.963h1.82v.847h-1.82v3.31c0 1.013.471 1.526 1.4 1.526.178 0 .369-.012.573-.038ZM108.02 10.366c.433.282.764.68 1.006 1.193s.356 1.103.356 1.77-.114 1.257-.356 1.758c-.242.5-.573.885-.993 1.154-.42.27-.929.41-1.489.41-.497 0-.942-.115-1.311-.333a2.165 2.165 0 0 1-.853-.936v3.566h-1.069v-8.852h1.069v1.116c.191-.41.471-.718.853-.936a2.553 2.553 0 0 1 1.311-.334 2.65 2.65 0 0 1 1.476.424Zm-.254 4.772c.344-.423.509-1.026.509-1.809 0-.782-.165-1.385-.509-1.822-.344-.436-.828-.654-1.451-.654-.624 0-1.108.218-1.439.642-.343.423-.509 1.026-.509 1.821 0 .783.166 1.399.509 1.822.344.423.815.642 1.439.642.623-.013 1.107-.219 1.451-.642ZM110.707 7.21h1.069v9.352h-1.069V7.21ZM117.925 10.571c.394.423.598 1.065.598 1.912v4.066h-1.044v-1.103a1.85 1.85 0 0 1-.764.885 2.262 2.262 0 0 1-1.184.308c-.407 0-.789-.09-1.132-.256a2.027 2.027 0 0 1-.828-.706 1.717 1.717 0 0 1-.305-1c0-.488.127-.86.369-1.13.242-.27.649-.462 1.209-.577.56-.116 1.337-.18 2.342-.18h.293v-.436c0-.539-.115-.936-.331-1.167-.216-.244-.573-.36-1.069-.36-.738 0-1.464.232-2.202.693l-.357-.782a3.937 3.937 0 0 1 1.21-.577c.47-.142.929-.219 1.362-.219.827 0 1.425.219 1.833.629Zm-.955 4.695c.344-.359.509-.82.509-1.385v-.385h-.242c-.776 0-1.362.038-1.769.103-.408.064-.688.18-.866.333-.165.154-.254.385-.254.68 0 .347.127.629.369.86.254.23.56.333.942.333.547 0 .98-.18 1.311-.539ZM121.272 16.241a2.67 2.67 0 0 1-1.069-1.154c-.254-.5-.369-1.09-.369-1.758 0-.667.127-1.257.382-1.77a2.902 2.902 0 0 1 1.095-1.193c.471-.282 1.018-.424 1.654-.424.433 0 .853.077 1.261.231.407.154.751.36 1.005.616l-.356.796c-.611-.5-1.222-.745-1.846-.745-.662 0-1.171.219-1.54.655-.369.436-.548 1.039-.548 1.834 0 .783.179 1.386.548 1.81.369.422.878.64 1.54.64.624 0 1.235-.243 1.846-.744l.356.796a2.91 2.91 0 0 1-1.031.616c-.407.154-.84.23-1.273.23-.649-.025-1.196-.153-1.655-.436ZM131.609 13.496h-4.684c.038.757.242 1.321.611 1.706s.891.578 1.565.578c.752 0 1.426-.257 2.05-.77l.356.782c-.28.27-.636.475-1.082.629a4.01 4.01 0 0 1-1.336.23c-1.006 0-1.782-.294-2.368-.884-.573-.59-.866-1.412-.866-2.45 0-.668.128-1.245.382-1.758a2.934 2.934 0 0 1 1.07-1.193c.458-.282.98-.424 1.578-.424.853 0 1.515.283 1.999.847.483.565.725 1.334.725 2.31v.397Zm-4.061-2.18c-.343.358-.534.859-.598 1.5h3.73c-.013-.654-.178-1.155-.484-1.5-.305-.347-.738-.527-1.285-.527-.573-.013-1.019.167-1.363.526Z" fill="#053D4E"></path></svg>